<mxfile host="65bd71144e" scale="0.4" border="10">
    <diagram name="Account Overall" id="TifYPGf0waED7cp_q03V">
        <mxGraphModel dx="1479" dy="419" grid="1" gridSize="10" guides="1" tooltips="1" connect="1" arrows="1" fold="1" page="0" pageScale="1" pageWidth="850" pageHeight="1100" background="#ffffff" math="0" shadow="0">
            <root>
                <mxCell id="xGdkJ3lXgkAMVpHLXlX3-0"/>
                <mxCell id="xGdkJ3lXgkAMVpHLXlX3-1" parent="xGdkJ3lXgkAMVpHLXlX3-0"/>
                <mxCell id="5L6MDdhFD6J-Ce2RK4hE-16" value="&lt;font style=&quot;font-size: 28px&quot;&gt;&lt;b&gt;Account&lt;/b&gt;&lt;/font&gt;" style="shape=umlFrame;whiteSpace=wrap;html=1;fontSize=24;width=160;height=60;" parent="xGdkJ3lXgkAMVpHLXlX3-1" vertex="1">
                    <mxGeometry x="-820" y="220" width="720" height="640" as="geometry"/>
                </mxCell>
                <mxCell id="5L6MDdhFD6J-Ce2RK4hE-8" value="&lt;font style=&quot;font-size: 18px&quot;&gt;«Boundary»&lt;/font&gt;&lt;br&gt;&lt;font style=&quot;font-size: 24px&quot;&gt;Views&lt;/font&gt;" style="html=1;" parent="xGdkJ3lXgkAMVpHLXlX3-1" vertex="1">
                    <mxGeometry x="-560" y="280" width="200" height="120" as="geometry"/>
                </mxCell>
                <mxCell id="5L6MDdhFD6J-Ce2RK4hE-9" value="&#10;Account" style="shape=module;align=left;spacingLeft=20;align=center;verticalAlign=top;fontSize=24;" parent="xGdkJ3lXgkAMVpHLXlX3-1" vertex="1">
                    <mxGeometry x="-560" y="480" width="200" height="120" as="geometry"/>
                </mxCell>
                <mxCell id="5L6MDdhFD6J-Ce2RK4hE-10" value="&#10;Data" style="shape=module;align=left;spacingLeft=20;align=center;verticalAlign=top;fontSize=24;" parent="xGdkJ3lXgkAMVpHLXlX3-1" vertex="1">
                    <mxGeometry x="-760" y="680" width="200" height="120" as="geometry"/>
                </mxCell>
                <mxCell id="5L6MDdhFD6J-Ce2RK4hE-11" value="&#10;Captcha" style="shape=module;align=left;spacingLeft=20;align=center;verticalAlign=top;fontSize=24;" parent="xGdkJ3lXgkAMVpHLXlX3-1" vertex="1">
                    <mxGeometry x="-360" y="680" width="200" height="120" as="geometry"/>
                </mxCell>
                <mxCell id="5L6MDdhFD6J-Ce2RK4hE-13" value="Use" style="endArrow=open;endSize=12;dashed=1;html=1;fontSize=18;exitX=0.5;exitY=1;exitDx=0;exitDy=0;entryX=0.5;entryY=0;entryDx=0;entryDy=0;" parent="xGdkJ3lXgkAMVpHLXlX3-1" source="5L6MDdhFD6J-Ce2RK4hE-8" target="5L6MDdhFD6J-Ce2RK4hE-9" edge="1">
                    <mxGeometry width="160" relative="1" as="geometry">
                        <mxPoint x="-550" y="660" as="sourcePoint"/>
                        <mxPoint x="-390" y="660" as="targetPoint"/>
                    </mxGeometry>
                </mxCell>
                <mxCell id="5L6MDdhFD6J-Ce2RK4hE-14" value="Use" style="endArrow=open;endSize=12;dashed=1;html=1;fontSize=18;exitX=0.5;exitY=1;exitDx=0;exitDy=0;entryX=0.5;entryY=0;entryDx=0;entryDy=0;" parent="xGdkJ3lXgkAMVpHLXlX3-1" source="5L6MDdhFD6J-Ce2RK4hE-9" target="5L6MDdhFD6J-Ce2RK4hE-10" edge="1">
                    <mxGeometry width="160" relative="1" as="geometry">
                        <mxPoint x="-550" y="660" as="sourcePoint"/>
                        <mxPoint x="-390" y="660" as="targetPoint"/>
                    </mxGeometry>
                </mxCell>
                <mxCell id="5L6MDdhFD6J-Ce2RK4hE-15" value="Use" style="endArrow=open;endSize=12;dashed=1;html=1;fontSize=18;entryX=0.5;entryY=0;entryDx=0;entryDy=0;exitX=0.5;exitY=1;exitDx=0;exitDy=0;" parent="xGdkJ3lXgkAMVpHLXlX3-1" source="5L6MDdhFD6J-Ce2RK4hE-9" target="5L6MDdhFD6J-Ce2RK4hE-11" edge="1">
                    <mxGeometry width="160" relative="1" as="geometry">
                        <mxPoint x="-550" y="660" as="sourcePoint"/>
                        <mxPoint x="-390" y="660" as="targetPoint"/>
                    </mxGeometry>
                </mxCell>
                <mxCell id="0" value="Redirect" style="endArrow=open;endSize=12;dashed=1;html=1;fontSize=18;exitX=0;exitY=0.5;exitDx=0;exitDy=0;startArrow=open;startFill=0;startSize=12;entryX=1;entryY=0.503;entryDx=0;entryDy=0;entryPerimeter=0;" parent="xGdkJ3lXgkAMVpHLXlX3-1" source="1" target="5L6MDdhFD6J-Ce2RK4hE-16" edge="1">
                    <mxGeometry width="160" relative="1" as="geometry">
                        <mxPoint x="10" y="539" as="sourcePoint"/>
                        <mxPoint x="-60" y="570" as="targetPoint"/>
                    </mxGeometry>
                </mxCell>
                <mxCell id="1" value="&lt;p style=&quot;margin: 0px ; margin-top: 6px ; text-align: center&quot;&gt;&lt;b&gt;&lt;font style=&quot;font-size: 28px&quot;&gt;Shopping&lt;/font&gt;&lt;/b&gt;&lt;/p&gt;&lt;hr style=&quot;font-size: 20px&quot;&gt;&lt;p style=&quot;margin: 0px 0px 0px 8px ; font-size: 20px&quot;&gt;&lt;font style=&quot;font-size: 20px&quot;&gt;&lt;br&gt;&lt;/font&gt;&lt;/p&gt;&lt;p style=&quot;text-align: center ; margin: 0px 0px 0px 8px&quot;&gt;&lt;font&gt;&lt;font style=&quot;font-size: 24px&quot;&gt;Product&lt;/font&gt;&lt;br&gt;&lt;/font&gt;&lt;/p&gt;" style="align=left;overflow=fill;html=1;dropTarget=0;" parent="xGdkJ3lXgkAMVpHLXlX3-1" vertex="1">
                    <mxGeometry x="20" y="470" width="200" height="140" as="geometry"/>
                </mxCell>
                <mxCell id="2" value="" style="shape=component;jettyWidth=8;jettyHeight=4;" parent="1" vertex="1">
                    <mxGeometry x="1" width="20" height="20" relative="1" as="geometry">
                        <mxPoint x="-24" y="4" as="offset"/>
                    </mxGeometry>
                </mxCell>
            </root>
        </mxGraphModel>
    </diagram>
    <diagram id="VxEYPoJ9jMwzYetKl-ly" name="Class Account">
        <mxGraphModel dx="2220" dy="2137" grid="1" gridSize="10" guides="1" tooltips="1" connect="1" arrows="1" fold="1" page="1" pageScale="1" pageWidth="850" pageHeight="1100" math="0" shadow="0">
            <root>
                <mxCell id="WMe_6DAG8EM_qzi8aFl_-0"/>
                <mxCell id="WMe_6DAG8EM_qzi8aFl_-1" parent="WMe_6DAG8EM_qzi8aFl_-0"/>
                <mxCell id="pcLQHoMplAE-bhF476yf-0" value="pkg" style="shape=umlFrame;whiteSpace=wrap;html=1;fontSize=18;strokeWidth=1;" parent="WMe_6DAG8EM_qzi8aFl_-1" vertex="1">
                    <mxGeometry x="-140" y="-140" width="1160" height="1580" as="geometry"/>
                </mxCell>
                <mxCell id="kPz3rW0C-OE6SjrhUmWS-0" value="Register" style="swimlane;fontStyle=1;align=center;verticalAlign=top;childLayout=stackLayout;horizontal=1;startSize=26;horizontalStack=0;resizeParent=1;resizeParentMax=0;resizeLast=0;collapsible=1;marginBottom=0;fontSize=18;strokeWidth=1;" parent="WMe_6DAG8EM_qzi8aFl_-1" vertex="1">
                    <mxGeometry x="-80" y="640" width="240" height="268" as="geometry"/>
                </mxCell>
                <mxCell id="kPz3rW0C-OE6SjrhUmWS-4" value="- userid: int" style="text;strokeColor=none;fillColor=none;align=left;verticalAlign=top;spacingLeft=4;spacingRight=4;overflow=hidden;rotatable=0;points=[[0,0.5],[1,0.5]];portConstraint=eastwest;fontSize=18;" parent="kPz3rW0C-OE6SjrhUmWS-0" vertex="1">
                    <mxGeometry y="26" width="240" height="26" as="geometry"/>
                </mxCell>
                <mxCell id="kPz3rW0C-OE6SjrhUmWS-1" value="- name: str" style="text;strokeColor=none;fillColor=none;align=left;verticalAlign=top;spacingLeft=4;spacingRight=4;overflow=hidden;rotatable=0;points=[[0,0.5],[1,0.5]];portConstraint=eastwest;fontSize=18;" parent="kPz3rW0C-OE6SjrhUmWS-0" vertex="1">
                    <mxGeometry y="52" width="240" height="26" as="geometry"/>
                </mxCell>
                <mxCell id="kPz3rW0C-OE6SjrhUmWS-5" value="- salt: str" style="text;strokeColor=none;fillColor=none;align=left;verticalAlign=top;spacingLeft=4;spacingRight=4;overflow=hidden;rotatable=0;points=[[0,0.5],[1,0.5]];portConstraint=eastwest;fontSize=18;" parent="kPz3rW0C-OE6SjrhUmWS-0" vertex="1">
                    <mxGeometry y="78" width="240" height="26" as="geometry"/>
                </mxCell>
                <mxCell id="kPz3rW0C-OE6SjrhUmWS-6" value="- password: str" style="text;strokeColor=none;fillColor=none;align=left;verticalAlign=top;spacingLeft=4;spacingRight=4;overflow=hidden;rotatable=0;points=[[0,0.5],[1,0.5]];portConstraint=eastwest;fontSize=18;" parent="kPz3rW0C-OE6SjrhUmWS-0" vertex="1">
                    <mxGeometry y="104" width="240" height="26" as="geometry"/>
                </mxCell>
                <mxCell id="kPz3rW0C-OE6SjrhUmWS-10" value="+ existing: bool" style="text;strokeColor=none;fillColor=none;align=left;verticalAlign=top;spacingLeft=4;spacingRight=4;overflow=hidden;rotatable=0;points=[[0,0.5],[1,0.5]];portConstraint=eastwest;fontSize=18;" parent="kPz3rW0C-OE6SjrhUmWS-0" vertex="1">
                    <mxGeometry y="130" width="240" height="26" as="geometry"/>
                </mxCell>
                <mxCell id="kPz3rW0C-OE6SjrhUmWS-2" value="" style="line;strokeWidth=1;fillColor=none;align=left;verticalAlign=middle;spacingTop=-1;spacingLeft=3;spacingRight=3;rotatable=0;labelPosition=right;points=[];portConstraint=eastwest;fontSize=18;" parent="kPz3rW0C-OE6SjrhUmWS-0" vertex="1">
                    <mxGeometry y="156" width="240" height="8" as="geometry"/>
                </mxCell>
                <mxCell id="kPz3rW0C-OE6SjrhUmWS-3" value="- generate_userid(): int" style="text;strokeColor=none;fillColor=none;align=left;verticalAlign=top;spacingLeft=4;spacingRight=4;overflow=hidden;rotatable=0;points=[[0,0.5],[1,0.5]];portConstraint=eastwest;fontSize=18;" parent="kPz3rW0C-OE6SjrhUmWS-0" vertex="1">
                    <mxGeometry y="164" width="240" height="26" as="geometry"/>
                </mxCell>
                <mxCell id="kPz3rW0C-OE6SjrhUmWS-7" value="- generate_salt(): str" style="text;strokeColor=none;fillColor=none;align=left;verticalAlign=top;spacingLeft=4;spacingRight=4;overflow=hidden;rotatable=0;points=[[0,0.5],[1,0.5]];portConstraint=eastwest;fontSize=18;" parent="kPz3rW0C-OE6SjrhUmWS-0" vertex="1">
                    <mxGeometry y="190" width="240" height="26" as="geometry"/>
                </mxCell>
                <mxCell id="kPz3rW0C-OE6SjrhUmWS-8" value="- hash_password(str): str" style="text;strokeColor=none;fillColor=none;align=left;verticalAlign=top;spacingLeft=4;spacingRight=4;overflow=hidden;rotatable=0;points=[[0,0.5],[1,0.5]];portConstraint=eastwest;fontSize=18;" parent="kPz3rW0C-OE6SjrhUmWS-0" vertex="1">
                    <mxGeometry y="216" width="240" height="26" as="geometry"/>
                </mxCell>
                <mxCell id="kPz3rW0C-OE6SjrhUmWS-9" value="+ add(): bool" style="text;strokeColor=none;fillColor=none;align=left;verticalAlign=top;spacingLeft=4;spacingRight=4;overflow=hidden;rotatable=0;points=[[0,0.5],[1,0.5]];portConstraint=eastwest;fontSize=18;" parent="kPz3rW0C-OE6SjrhUmWS-0" vertex="1">
                    <mxGeometry y="242" width="240" height="26" as="geometry"/>
                </mxCell>
                <mxCell id="kPz3rW0C-OE6SjrhUmWS-11" value="Login" style="swimlane;fontStyle=1;align=center;verticalAlign=top;childLayout=stackLayout;horizontal=1;startSize=26;horizontalStack=0;resizeParent=1;resizeParentMax=0;resizeLast=0;collapsible=1;marginBottom=0;fontSize=18;strokeWidth=1;" parent="WMe_6DAG8EM_qzi8aFl_-1" vertex="1">
                    <mxGeometry x="720" y="666" width="240" height="242" as="geometry"/>
                </mxCell>
                <mxCell id="kPz3rW0C-OE6SjrhUmWS-12" value="- userid: int" style="text;strokeColor=none;fillColor=none;align=left;verticalAlign=top;spacingLeft=4;spacingRight=4;overflow=hidden;rotatable=0;points=[[0,0.5],[1,0.5]];portConstraint=eastwest;fontSize=18;" parent="kPz3rW0C-OE6SjrhUmWS-11" vertex="1">
                    <mxGeometry y="26" width="240" height="26" as="geometry"/>
                </mxCell>
                <mxCell id="kPz3rW0C-OE6SjrhUmWS-13" value="- name: str" style="text;strokeColor=none;fillColor=none;align=left;verticalAlign=top;spacingLeft=4;spacingRight=4;overflow=hidden;rotatable=0;points=[[0,0.5],[1,0.5]];portConstraint=eastwest;fontSize=18;" parent="kPz3rW0C-OE6SjrhUmWS-11" vertex="1">
                    <mxGeometry y="52" width="240" height="26" as="geometry"/>
                </mxCell>
                <mxCell id="kPz3rW0C-OE6SjrhUmWS-14" value="- salt: str" style="text;strokeColor=none;fillColor=none;align=left;verticalAlign=top;spacingLeft=4;spacingRight=4;overflow=hidden;rotatable=0;points=[[0,0.5],[1,0.5]];portConstraint=eastwest;fontSize=18;" parent="kPz3rW0C-OE6SjrhUmWS-11" vertex="1">
                    <mxGeometry y="78" width="240" height="26" as="geometry"/>
                </mxCell>
                <mxCell id="kPz3rW0C-OE6SjrhUmWS-15" value="- password: str" style="text;strokeColor=none;fillColor=none;align=left;verticalAlign=top;spacingLeft=4;spacingRight=4;overflow=hidden;rotatable=0;points=[[0,0.5],[1,0.5]];portConstraint=eastwest;fontSize=18;" parent="kPz3rW0C-OE6SjrhUmWS-11" vertex="1">
                    <mxGeometry y="104" width="240" height="26" as="geometry"/>
                </mxCell>
                <mxCell id="kPz3rW0C-OE6SjrhUmWS-16" value="+ existing: bool" style="text;strokeColor=none;fillColor=none;align=left;verticalAlign=top;spacingLeft=4;spacingRight=4;overflow=hidden;rotatable=0;points=[[0,0.5],[1,0.5]];portConstraint=eastwest;fontSize=18;" parent="kPz3rW0C-OE6SjrhUmWS-11" vertex="1">
                    <mxGeometry y="130" width="240" height="26" as="geometry"/>
                </mxCell>
                <mxCell id="kPz3rW0C-OE6SjrhUmWS-17" value="" style="line;strokeWidth=1;fillColor=none;align=left;verticalAlign=middle;spacingTop=-1;spacingLeft=3;spacingRight=3;rotatable=0;labelPosition=right;points=[];portConstraint=eastwest;fontSize=18;" parent="kPz3rW0C-OE6SjrhUmWS-11" vertex="1">
                    <mxGeometry y="156" width="240" height="8" as="geometry"/>
                </mxCell>
                <mxCell id="kPz3rW0C-OE6SjrhUmWS-18" value="- get_account(): None" style="text;strokeColor=none;fillColor=none;align=left;verticalAlign=top;spacingLeft=4;spacingRight=4;overflow=hidden;rotatable=0;points=[[0,0.5],[1,0.5]];portConstraint=eastwest;fontSize=18;" parent="kPz3rW0C-OE6SjrhUmWS-11" vertex="1">
                    <mxGeometry y="164" width="240" height="26" as="geometry"/>
                </mxCell>
                <mxCell id="kPz3rW0C-OE6SjrhUmWS-20" value="- hash_password(): str" style="text;strokeColor=none;fillColor=none;align=left;verticalAlign=top;spacingLeft=4;spacingRight=4;overflow=hidden;rotatable=0;points=[[0,0.5],[1,0.5]];portConstraint=eastwest;fontSize=18;" parent="kPz3rW0C-OE6SjrhUmWS-11" vertex="1">
                    <mxGeometry y="190" width="240" height="26" as="geometry"/>
                </mxCell>
                <mxCell id="kPz3rW0C-OE6SjrhUmWS-21" value="+ jwt(): str" style="text;strokeColor=none;fillColor=none;align=left;verticalAlign=top;spacingLeft=4;spacingRight=4;overflow=hidden;rotatable=0;points=[[0,0.5],[1,0.5]];portConstraint=eastwest;fontSize=18;" parent="kPz3rW0C-OE6SjrhUmWS-11" vertex="1">
                    <mxGeometry y="216" width="240" height="26" as="geometry"/>
                </mxCell>
                <mxCell id="kPz3rW0C-OE6SjrhUmWS-32" value="&lt;&lt;Interface&gt;&gt; AccountDataInterface" style="swimlane;fontStyle=1;childLayout=stackLayout;horizontal=1;startSize=26;fillColor=none;horizontalStack=0;resizeParent=1;resizeParentMax=0;resizeLast=0;collapsible=1;marginBottom=0;fontSize=18;strokeWidth=1;" parent="WMe_6DAG8EM_qzi8aFl_-1" vertex="1">
                    <mxGeometry x="240" y="1080" width="400" height="156" as="geometry"/>
                </mxCell>
                <mxCell id="kPz3rW0C-OE6SjrhUmWS-33" value="+ add_new_account(int,str,str,str,bool): bool" style="text;strokeColor=none;fillColor=none;align=left;verticalAlign=top;spacingLeft=4;spacingRight=4;overflow=hidden;rotatable=0;points=[[0,0.5],[1,0.5]];portConstraint=eastwest;fontSize=18;" parent="kPz3rW0C-OE6SjrhUmWS-32" vertex="1">
                    <mxGeometry y="26" width="400" height="26" as="geometry"/>
                </mxCell>
                <mxCell id="kPz3rW0C-OE6SjrhUmWS-36" value="+ retrieve_id_by_name(str): tuple" style="text;strokeColor=none;fillColor=none;align=left;verticalAlign=top;spacingLeft=4;spacingRight=4;overflow=hidden;rotatable=0;points=[[0,0.5],[1,0.5]];portConstraint=eastwest;fontSize=18;" parent="kPz3rW0C-OE6SjrhUmWS-32" vertex="1">
                    <mxGeometry y="52" width="400" height="26" as="geometry"/>
                </mxCell>
                <mxCell id="kPz3rW0C-OE6SjrhUmWS-37" value="+ retrieve_id_salt_by_name(str): tuple" style="text;strokeColor=none;fillColor=none;align=left;verticalAlign=top;spacingLeft=4;spacingRight=4;overflow=hidden;rotatable=0;points=[[0,0.5],[1,0.5]];portConstraint=eastwest;fontSize=18;" parent="kPz3rW0C-OE6SjrhUmWS-32" vertex="1">
                    <mxGeometry y="78" width="400" height="26" as="geometry"/>
                </mxCell>
                <mxCell id="kPz3rW0C-OE6SjrhUmWS-38" value="+ retrieve_id_by_name_passwd(str,str): tuple" style="text;strokeColor=none;fillColor=none;align=left;verticalAlign=top;spacingLeft=4;spacingRight=4;overflow=hidden;rotatable=0;points=[[0,0.5],[1,0.5]];portConstraint=eastwest;fontSize=18;" parent="kPz3rW0C-OE6SjrhUmWS-32" vertex="1">
                    <mxGeometry y="104" width="400" height="26" as="geometry"/>
                </mxCell>
                <mxCell id="kPz3rW0C-OE6SjrhUmWS-39" value="+ retrieve_name_by_id(int): tuple" style="text;strokeColor=none;fillColor=none;align=left;verticalAlign=top;spacingLeft=4;spacingRight=4;overflow=hidden;rotatable=0;points=[[0,0.5],[1,0.5]];portConstraint=eastwest;fontSize=18;" parent="kPz3rW0C-OE6SjrhUmWS-32" vertex="1">
                    <mxGeometry y="130" width="400" height="26" as="geometry"/>
                </mxCell>
                <mxCell id="kPz3rW0C-OE6SjrhUmWS-40" value="AccountMySQLInterface" style="swimlane;fontStyle=1;childLayout=stackLayout;horizontal=1;startSize=26;fillColor=none;horizontalStack=0;resizeParent=1;resizeParentMax=0;resizeLast=0;collapsible=1;marginBottom=0;fontSize=18;strokeWidth=1;" parent="WMe_6DAG8EM_qzi8aFl_-1" vertex="1">
                    <mxGeometry x="280" y="1320" width="320" height="52" as="geometry"/>
                </mxCell>
                <mxCell id="kPz3rW0C-OE6SjrhUmWS-48" value="" style="endArrow=block;dashed=1;endFill=0;endSize=12;html=1;fontSize=18;strokeWidth=2;exitX=0.5;exitY=0;exitDx=0;exitDy=0;entryX=0.5;entryY=1;entryDx=0;entryDy=0;" parent="WMe_6DAG8EM_qzi8aFl_-1" source="kPz3rW0C-OE6SjrhUmWS-40" target="kPz3rW0C-OE6SjrhUmWS-32" edge="1">
                    <mxGeometry width="160" relative="1" as="geometry">
                        <mxPoint x="350" y="810" as="sourcePoint"/>
                        <mxPoint x="440" y="780" as="targetPoint"/>
                    </mxGeometry>
                </mxCell>
                <mxCell id="kPz3rW0C-OE6SjrhUmWS-51" value="Use" style="endArrow=open;endSize=12;dashed=1;html=1;fontSize=18;strokeWidth=2;exitX=0.5;exitY=1;exitDx=0;exitDy=0;entryX=0.5;entryY=0;entryDx=0;entryDy=0;edgeStyle=orthogonalEdgeStyle;" parent="WMe_6DAG8EM_qzi8aFl_-1" source="kPz3rW0C-OE6SjrhUmWS-0" target="kPz3rW0C-OE6SjrhUmWS-32" edge="1">
                    <mxGeometry width="160" relative="1" as="geometry">
                        <mxPoint x="360" y="550" as="sourcePoint"/>
                        <mxPoint x="510" y="590" as="targetPoint"/>
                    </mxGeometry>
                </mxCell>
                <mxCell id="kPz3rW0C-OE6SjrhUmWS-52" value="Use" style="endArrow=open;endSize=12;dashed=1;html=1;fontSize=18;strokeWidth=2;exitX=0.5;exitY=1;exitDx=0;exitDy=0;entryX=0.5;entryY=0;entryDx=0;entryDy=0;edgeStyle=orthogonalEdgeStyle;" parent="WMe_6DAG8EM_qzi8aFl_-1" source="kPz3rW0C-OE6SjrhUmWS-11" target="kPz3rW0C-OE6SjrhUmWS-32" edge="1">
                    <mxGeometry width="160" relative="1" as="geometry">
                        <mxPoint x="350" y="580" as="sourcePoint"/>
                        <mxPoint x="510" y="580" as="targetPoint"/>
                    </mxGeometry>
                </mxCell>
                <mxCell id="kPz3rW0C-OE6SjrhUmWS-53" value="Account" style="text;align=center;fontStyle=1;verticalAlign=middle;spacingLeft=3;spacingRight=3;strokeColor=none;rotatable=0;points=[[0,0.5],[1,0.5]];portConstraint=eastwest;fontSize=48;" parent="WMe_6DAG8EM_qzi8aFl_-1" vertex="1">
                    <mxGeometry x="400" y="-80" width="80" height="26" as="geometry"/>
                </mxCell>
                <mxCell id="mKu4ez7x-HWwprDcUmkC-10" value="&lt;&lt;Boundary&gt;&gt; UI" style="swimlane;fontStyle=1;childLayout=stackLayout;horizontal=1;startSize=26;fillColor=none;horizontalStack=0;resizeParent=1;resizeParentMax=0;resizeLast=0;collapsible=1;marginBottom=0;fontSize=18;strokeWidth=1;" parent="WMe_6DAG8EM_qzi8aFl_-1" vertex="1">
                    <mxGeometry x="240" y="40" width="400" height="104" as="geometry"/>
                </mxCell>
                <mxCell id="mKu4ez7x-HWwprDcUmkC-12" value="+ register(): JsonResponse" style="text;strokeColor=none;fillColor=none;align=left;verticalAlign=top;spacingLeft=4;spacingRight=4;overflow=hidden;rotatable=0;points=[[0,0.5],[1,0.5]];portConstraint=eastwest;fontSize=18;" parent="mKu4ez7x-HWwprDcUmkC-10" vertex="1">
                    <mxGeometry y="26" width="400" height="26" as="geometry"/>
                </mxCell>
                <mxCell id="mKu4ez7x-HWwprDcUmkC-18" value="+ login(): JsonResponse" style="text;strokeColor=none;fillColor=none;align=left;verticalAlign=top;spacingLeft=4;spacingRight=4;overflow=hidden;rotatable=0;points=[[0,0.5],[1,0.5]];portConstraint=eastwest;fontSize=18;" parent="mKu4ez7x-HWwprDcUmkC-10" vertex="1">
                    <mxGeometry y="52" width="400" height="26" as="geometry"/>
                </mxCell>
                <mxCell id="mKu4ez7x-HWwprDcUmkC-19" value="+ get_captcha(): HttpResponse" style="text;strokeColor=none;fillColor=none;align=left;verticalAlign=top;spacingLeft=4;spacingRight=4;overflow=hidden;rotatable=0;points=[[0,0.5],[1,0.5]];portConstraint=eastwest;fontSize=18;" parent="mKu4ez7x-HWwprDcUmkC-10" vertex="1">
                    <mxGeometry y="78" width="400" height="26" as="geometry"/>
                </mxCell>
                <mxCell id="mKu4ez7x-HWwprDcUmkC-20" value="Use" style="endArrow=open;endSize=12;dashed=1;html=1;fontSize=20;strokeWidth=2;entryX=0.5;entryY=0;entryDx=0;entryDy=0;exitX=0;exitY=0.5;exitDx=0;exitDy=0;edgeStyle=orthogonalEdgeStyle;" parent="WMe_6DAG8EM_qzi8aFl_-1" source="mKu4ez7x-HWwprDcUmkC-12" target="kPz3rW0C-OE6SjrhUmWS-0" edge="1">
                    <mxGeometry width="160" relative="1" as="geometry">
                        <mxPoint x="10" y="120" as="sourcePoint"/>
                        <mxPoint x="170" y="120" as="targetPoint"/>
                    </mxGeometry>
                </mxCell>
                <mxCell id="mKu4ez7x-HWwprDcUmkC-21" value="Use" style="endArrow=open;endSize=12;dashed=1;html=1;fontSize=20;strokeWidth=2;entryX=0.5;entryY=0;entryDx=0;entryDy=0;exitX=1;exitY=0.5;exitDx=0;exitDy=0;edgeStyle=orthogonalEdgeStyle;" parent="WMe_6DAG8EM_qzi8aFl_-1" source="mKu4ez7x-HWwprDcUmkC-18" target="kPz3rW0C-OE6SjrhUmWS-11" edge="1">
                    <mxGeometry width="160" relative="1" as="geometry">
                        <mxPoint x="660" y="160" as="sourcePoint"/>
                        <mxPoint x="820" y="160" as="targetPoint"/>
                    </mxGeometry>
                </mxCell>
                <mxCell id="mKu4ez7x-HWwprDcUmkC-22" value="Captcha" style="swimlane;fontStyle=1;align=center;verticalAlign=top;childLayout=stackLayout;horizontal=1;startSize=26;horizontalStack=0;resizeParent=1;resizeParentMax=0;resizeLast=0;collapsible=1;marginBottom=0;fontSize=18;strokeWidth=1;" parent="WMe_6DAG8EM_qzi8aFl_-1" vertex="1">
                    <mxGeometry x="300" y="240" width="280" height="450" as="geometry"/>
                </mxCell>
                <mxCell id="mKu4ez7x-HWwprDcUmkC-23" value="- bezier: Bezier" style="text;strokeColor=none;fillColor=none;align=left;verticalAlign=top;spacingLeft=4;spacingRight=4;overflow=hidden;rotatable=0;points=[[0,0.5],[1,0.5]];portConstraint=eastwest;fontSize=18;" parent="mKu4ez7x-HWwprDcUmkC-22" vertex="1">
                    <mxGeometry y="26" width="280" height="26" as="geometry"/>
                </mxCell>
                <mxCell id="mKu4ez7x-HWwprDcUmkC-24" value="- fonts: list" style="text;strokeColor=none;fillColor=none;align=left;verticalAlign=top;spacingLeft=4;spacingRight=4;overflow=hidden;rotatable=0;points=[[0,0.5],[1,0.5]];portConstraint=eastwest;fontSize=18;" parent="mKu4ez7x-HWwprDcUmkC-22" vertex="1">
                    <mxGeometry y="52" width="280" height="26" as="geometry"/>
                </mxCell>
                <mxCell id="mKu4ez7x-HWwprDcUmkC-25" value="- width: int" style="text;strokeColor=none;fillColor=none;align=left;verticalAlign=top;spacingLeft=4;spacingRight=4;overflow=hidden;rotatable=0;points=[[0,0.5],[1,0.5]];portConstraint=eastwest;fontSize=18;" parent="mKu4ez7x-HWwprDcUmkC-22" vertex="1">
                    <mxGeometry y="78" width="280" height="26" as="geometry"/>
                </mxCell>
                <mxCell id="mKu4ez7x-HWwprDcUmkC-26" value="- height: int" style="text;strokeColor=none;fillColor=none;align=left;verticalAlign=top;spacingLeft=4;spacingRight=4;overflow=hidden;rotatable=0;points=[[0,0.5],[1,0.5]];portConstraint=eastwest;fontSize=18;" parent="mKu4ez7x-HWwprDcUmkC-22" vertex="1">
                    <mxGeometry y="104" width="280" height="26" as="geometry"/>
                </mxCell>
                <mxCell id="mKu4ez7x-HWwprDcUmkC-27" value="- image: Image" style="text;strokeColor=none;fillColor=none;align=left;verticalAlign=top;spacingLeft=4;spacingRight=4;overflow=hidden;rotatable=0;points=[[0,0.5],[1,0.5]];portConstraint=eastwest;fontSize=18;" parent="mKu4ez7x-HWwprDcUmkC-22" vertex="1">
                    <mxGeometry y="130" width="280" height="26" as="geometry"/>
                </mxCell>
                <mxCell id="mKu4ez7x-HWwprDcUmkC-3" value="- color: tuple" style="text;strokeColor=none;fillColor=none;align=left;verticalAlign=top;spacingLeft=4;spacingRight=4;overflow=hidden;rotatable=0;points=[[0,0.5],[1,0.5]];portConstraint=eastwest;fontSize=18;" parent="mKu4ez7x-HWwprDcUmkC-22" vertex="1">
                    <mxGeometry y="156" width="280" height="26" as="geometry"/>
                </mxCell>
                <mxCell id="mKu4ez7x-HWwprDcUmkC-28" value="" style="line;strokeWidth=1;fillColor=none;align=left;verticalAlign=middle;spacingTop=-1;spacingLeft=3;spacingRight=3;rotatable=0;labelPosition=right;points=[];portConstraint=eastwest;fontSize=18;" parent="mKu4ez7x-HWwprDcUmkC-22" vertex="1">
                    <mxGeometry y="182" width="280" height="8" as="geometry"/>
                </mxCell>
                <mxCell id="mKu4ez7x-HWwprDcUmkC-29" value="- random_color(int,int,int): tuple" style="text;strokeColor=none;fillColor=none;align=left;verticalAlign=top;spacingLeft=4;spacingRight=4;overflow=hidden;rotatable=0;points=[[0,0.5],[1,0.5]];portConstraint=eastwest;fontSize=18;" parent="mKu4ez7x-HWwprDcUmkC-22" vertex="1">
                    <mxGeometry y="190" width="280" height="26" as="geometry"/>
                </mxCell>
                <mxCell id="mKu4ez7x-HWwprDcUmkC-4" value="- background(): None" style="text;strokeColor=none;fillColor=none;align=left;verticalAlign=top;spacingLeft=4;spacingRight=4;overflow=hidden;rotatable=0;points=[[0,0.5],[1,0.5]];portConstraint=eastwest;fontSize=18;" parent="mKu4ez7x-HWwprDcUmkC-22" vertex="1">
                    <mxGeometry y="216" width="280" height="26" as="geometry"/>
                </mxCell>
                <mxCell id="mKu4ez7x-HWwprDcUmkC-5" value="- text(str,list,float): None" style="text;strokeColor=none;fillColor=none;align=left;verticalAlign=top;spacingLeft=4;spacingRight=4;overflow=hidden;rotatable=0;points=[[0,0.5],[1,0.5]];portConstraint=eastwest;fontSize=18;" parent="mKu4ez7x-HWwprDcUmkC-22" vertex="1">
                    <mxGeometry y="242" width="280" height="26" as="geometry"/>
                </mxCell>
                <mxCell id="mKu4ez7x-HWwprDcUmkC-6" value="- twist(Image,float,float): Image" style="text;strokeColor=none;fillColor=none;align=left;verticalAlign=top;spacingLeft=4;spacingRight=4;overflow=hidden;rotatable=0;points=[[0,0.5],[1,0.5]];portConstraint=eastwest;fontSize=18;" parent="mKu4ez7x-HWwprDcUmkC-22" vertex="1">
                    <mxGeometry y="268" width="280" height="26" as="geometry"/>
                </mxCell>
                <mxCell id="mKu4ez7x-HWwprDcUmkC-7" value="- shift(Image,float,float): Image" style="text;strokeColor=none;fillColor=none;align=left;verticalAlign=top;spacingLeft=4;spacingRight=4;overflow=hidden;rotatable=0;points=[[0,0.5],[1,0.5]];portConstraint=eastwest;fontSize=18;" parent="mKu4ez7x-HWwprDcUmkC-22" vertex="1">
                    <mxGeometry y="294" width="280" height="26" as="geometry"/>
                </mxCell>
                <mxCell id="mKu4ez7x-HWwprDcUmkC-8" value="- rotate(Image,int): Image" style="text;strokeColor=none;fillColor=none;align=left;verticalAlign=top;spacingLeft=4;spacingRight=4;overflow=hidden;rotatable=0;points=[[0,0.5],[1,0.5]];portConstraint=eastwest;fontSize=18;" parent="mKu4ez7x-HWwprDcUmkC-22" vertex="1">
                    <mxGeometry y="320" width="280" height="26" as="geometry"/>
                </mxCell>
                <mxCell id="mKu4ez7x-HWwprDcUmkC-9" value="- curve(int,int): None" style="text;strokeColor=none;fillColor=none;align=left;verticalAlign=top;spacingLeft=4;spacingRight=4;overflow=hidden;rotatable=0;points=[[0,0.5],[1,0.5]];portConstraint=eastwest;fontSize=18;" parent="mKu4ez7x-HWwprDcUmkC-22" vertex="1">
                    <mxGeometry y="346" width="280" height="26" as="geometry"/>
                </mxCell>
                <mxCell id="mKu4ez7x-HWwprDcUmkC-11" value="- noise(int,int): None" style="text;strokeColor=none;fillColor=none;align=left;verticalAlign=top;spacingLeft=4;spacingRight=4;overflow=hidden;rotatable=0;points=[[0,0.5],[1,0.5]];portConstraint=eastwest;fontSize=18;" parent="mKu4ez7x-HWwprDcUmkC-22" vertex="1">
                    <mxGeometry y="372" width="280" height="26" as="geometry"/>
                </mxCell>
                <mxCell id="mKu4ez7x-HWwprDcUmkC-13" value="- smooth(): None" style="text;strokeColor=none;fillColor=none;align=left;verticalAlign=top;spacingLeft=4;spacingRight=4;overflow=hidden;rotatable=0;points=[[0,0.5],[1,0.5]];portConstraint=eastwest;fontSize=18;" parent="mKu4ez7x-HWwprDcUmkC-22" vertex="1">
                    <mxGeometry y="398" width="280" height="26" as="geometry"/>
                </mxCell>
                <mxCell id="mKu4ez7x-HWwprDcUmkC-14" value="- generate(str): tuple" style="text;strokeColor=none;fillColor=none;align=left;verticalAlign=top;spacingLeft=4;spacingRight=4;overflow=hidden;rotatable=0;points=[[0,0.5],[1,0.5]];portConstraint=eastwest;fontSize=18;" parent="mKu4ez7x-HWwprDcUmkC-22" vertex="1">
                    <mxGeometry y="424" width="280" height="26" as="geometry"/>
                </mxCell>
                <mxCell id="mKu4ez7x-HWwprDcUmkC-32" value="Use" style="endArrow=open;endSize=12;dashed=1;html=1;fontSize=20;strokeWidth=2;entryX=0.5;entryY=0;entryDx=0;entryDy=0;exitX=0.5;exitY=1.064;exitDx=0;exitDy=0;exitPerimeter=0;" parent="WMe_6DAG8EM_qzi8aFl_-1" source="mKu4ez7x-HWwprDcUmkC-19" target="mKu4ez7x-HWwprDcUmkC-22" edge="1">
                    <mxGeometry width="160" relative="1" as="geometry">
                        <mxPoint x="510" y="200" as="sourcePoint"/>
                        <mxPoint x="670" y="200" as="targetPoint"/>
                    </mxGeometry>
                </mxCell>
                <mxCell id="mKu4ez7x-HWwprDcUmkC-15" value="1" style="endArrow=open;html=1;endSize=12;startArrow=diamondThin;startSize=14;startFill=0;align=left;verticalAlign=bottom;fontSize=20;strokeWidth=2;exitX=0.5;exitY=1;exitDx=0;exitDy=0;entryX=0.5;entryY=0;entryDx=0;entryDy=0;" parent="WMe_6DAG8EM_qzi8aFl_-1" source="mKu4ez7x-HWwprDcUmkC-22" target="mKu4ez7x-HWwprDcUmkC-16" edge="1">
                    <mxGeometry x="-0.1111" y="-20" relative="1" as="geometry">
                        <mxPoint x="360" y="740" as="sourcePoint"/>
                        <mxPoint x="520" y="740" as="targetPoint"/>
                        <mxPoint as="offset"/>
                    </mxGeometry>
                </mxCell>
                <mxCell id="mKu4ez7x-HWwprDcUmkC-16" value="Bezier" style="swimlane;fontStyle=1;align=center;verticalAlign=top;childLayout=stackLayout;horizontal=1;startSize=26;horizontalStack=0;resizeParent=1;resizeParentMax=0;resizeLast=0;collapsible=1;marginBottom=0;fontSize=18;strokeWidth=1;" parent="WMe_6DAG8EM_qzi8aFl_-1" vertex="1">
                    <mxGeometry x="300" y="770" width="280" height="138" as="geometry"/>
                </mxCell>
                <mxCell id="mKu4ez7x-HWwprDcUmkC-17" value="- tsequence: tuple" style="text;strokeColor=none;fillColor=none;align=left;verticalAlign=top;spacingLeft=4;spacingRight=4;overflow=hidden;rotatable=0;points=[[0,0.5],[1,0.5]];portConstraint=eastwest;fontSize=18;" parent="mKu4ez7x-HWwprDcUmkC-16" vertex="1">
                    <mxGeometry y="26" width="280" height="26" as="geometry"/>
                </mxCell>
                <mxCell id="mKu4ez7x-HWwprDcUmkC-30" value="- beziers: dict" style="text;strokeColor=none;fillColor=none;align=left;verticalAlign=top;spacingLeft=4;spacingRight=4;overflow=hidden;rotatable=0;points=[[0,0.5],[1,0.5]];portConstraint=eastwest;fontSize=18;" parent="mKu4ez7x-HWwprDcUmkC-16" vertex="1">
                    <mxGeometry y="52" width="280" height="26" as="geometry"/>
                </mxCell>
                <mxCell id="mKu4ez7x-HWwprDcUmkC-36" value="" style="line;strokeWidth=1;fillColor=none;align=left;verticalAlign=middle;spacingTop=-1;spacingLeft=3;spacingRight=3;rotatable=0;labelPosition=right;points=[];portConstraint=eastwest;fontSize=18;" parent="mKu4ez7x-HWwprDcUmkC-16" vertex="1">
                    <mxGeometry y="78" width="280" height="8" as="geometry"/>
                </mxCell>
                <mxCell id="mKu4ez7x-HWwprDcUmkC-38" value="- pascal_row(int): list" style="text;strokeColor=none;fillColor=none;align=left;verticalAlign=top;spacingLeft=4;spacingRight=4;overflow=hidden;rotatable=0;points=[[0,0.5],[1,0.5]];portConstraint=eastwest;fontSize=18;" parent="mKu4ez7x-HWwprDcUmkC-16" vertex="1">
                    <mxGeometry y="86" width="280" height="26" as="geometry"/>
                </mxCell>
                <mxCell id="mKu4ez7x-HWwprDcUmkC-47" value="+ generate(int): list" style="text;strokeColor=none;fillColor=none;align=left;verticalAlign=top;spacingLeft=4;spacingRight=4;overflow=hidden;rotatable=0;points=[[0,0.5],[1,0.5]];portConstraint=eastwest;fontSize=18;" parent="mKu4ez7x-HWwprDcUmkC-16" vertex="1">
                    <mxGeometry y="112" width="280" height="26" as="geometry"/>
                </mxCell>
            </root>
        </mxGraphModel>
    </diagram>
</mxfile>